<svg xmlns="http://www.w3.org/2000/svg" xmlns:xlink="http://www.w3.org/1999/xlink" version="1.1" style="shape-rendering:geometricPrecision; text-rendering:geometricPrecision; image-rendering:optimizeQuality; fill-rule:evenodd; clip-rule:evenodd" viewBox="-0.5 -0.5 448 412">
<g><path style="opacity:1" fill="#fefefe" d="M -0.5,-0.5 C 148.833,-0.5 298.167,-0.5 447.5,-0.5C 447.5,136.833 447.5,274.167 447.5,411.5C 298.167,411.5 148.833,411.5 -0.5,411.5C -0.5,274.167 -0.5,136.833 -0.5,-0.5 Z"/></g>
<g><path style="opacity:1" fill="#353535" d="M 198.5,13.5 C 210.866,13.2481 223.199,13.7481 235.5,15C 239.07,16.7034 240.236,19.5367 239,23.5C 237.147,25.5924 234.814,26.5924 232,26.5C 217.28,24.9908 202.613,25.3241 188,27.5C 182.67,24.3461 182.17,20.5127 186.5,16C 190.796,15.9244 194.796,15.0911 198.5,13.5 Z"/></g>
<g><path style="opacity:1" fill="#363636" d="M 275.5,24.5 C 293.132,29.0656 309.298,36.7323 324,47.5C 325.378,53.7876 322.878,56.6209 316.5,56C 303.337,47.4183 289.337,40.4183 274.5,35C 271.64,31.1508 271.973,27.6508 275.5,24.5 Z"/></g>
<g><path style="opacity:1" fill="#373737" d="M 141.5,27.5 C 147.028,26.0693 150.362,28.0693 151.5,33.5C 151.124,35.3829 150.124,36.8829 148.5,38C 134.235,43.7959 120.902,51.1292 108.5,60C 102.212,61.378 99.3791,58.878 100,52.5C 112.851,42.4932 126.684,34.1599 141.5,27.5 Z"/></g>
<g><path style="opacity:1" fill="#363636" d="M 351.5,73.5 C 352.873,73.3433 354.207,73.51 355.5,74C 367.16,85.8268 376.993,98.9935 385,113.5C 386.378,119.788 383.878,122.621 377.5,122C 368.854,108.543 359.354,95.7098 349,83.5C 346.712,79.3178 347.545,75.9844 351.5,73.5 Z"/></g>
<g><path style="opacity:1" fill="#373737" d="M 69.5,79.5 C 76.5493,79.6915 79.0493,83.0248 77,89.5C 66.7017,100.813 58.3684,113.479 52,127.5C 46.5137,131.047 43.0137,129.713 41.5,123.5C 48.3134,107.201 57.6467,92.5344 69.5,79.5 Z"/></g>
<g><path style="opacity:1" fill="#373737" d="M 394.5,152.5 C 397.652,151.959 400.152,152.959 402,155.5C 407.159,171.783 409.492,188.449 409,205.5C 405.187,210.685 401.52,210.685 398,205.5C 397,189.836 394.834,174.336 391.5,159C 391.32,156.198 392.32,154.031 394.5,152.5 Z"/></g>
<g><path style="opacity:1" fill="#363636" d="M 28.5,160.5 C 31.3198,160.248 33.9865,160.748 36.5,162C 37.1159,163.4 37.4493,164.9 37.5,166.5C 34.8118,182.049 33.3118,197.716 33,213.5C 28.8372,217.747 25.1705,217.414 22,212.5C 21.3387,199.771 22.0053,187.105 24,174.5C 24.9435,169.569 26.4435,164.902 28.5,160.5 Z"/></g>
<g><path style="opacity:1" fill="#373737" d="M 396.5,243.5 C 399.505,243.253 402.005,244.253 404,246.5C 404.439,250.211 404.106,253.878 403,257.5C 399.173,270.154 394.506,282.487 389,294.5C 386.209,298.554 382.875,299.22 379,296.5C 377.627,294.305 377.294,291.971 378,289.5C 384.529,276.051 389.529,262.051 393,247.5C 394.102,246.051 395.269,244.718 396.5,243.5 Z"/></g>
<g><path style="opacity:1" fill="#363636" d="M 30.5,250.5 C 35.3521,249.277 38.5188,250.944 40,255.5C 43.7644,269.46 49.0977,282.793 56,295.5C 56.1908,303.304 52.8575,305.304 46,301.5C 38.0481,287.091 31.8815,271.924 27.5,256C 28.1242,253.915 29.1242,252.082 30.5,250.5 Z"/></g>
<g><path style="opacity:1" fill="#373737" d="M 355.5,323.5 C 362.549,323.691 365.049,327.025 363,333.5C 353.049,345.788 341.549,356.288 328.5,365C 325.165,367.291 322.332,366.791 320,363.5C 319.289,361.101 319.456,358.768 320.5,356.5C 333.776,347.225 345.443,336.225 355.5,323.5 Z"/></g>
<g><path style="opacity:1" fill="#373737" d="M 75.5,328.5 C 76.8734,328.343 78.2068,328.51 79.5,329C 91.1139,340.954 103.614,351.787 117,361.5C 117.851,369.154 114.684,371.654 107.5,369C 94.4265,359.928 82.5931,349.428 72,337.5C 70.6649,333.392 71.8316,330.392 75.5,328.5 Z"/></g>
<g><path style="opacity:1" fill="#373737" d="M 281.5,376.5 C 288.282,375.125 291.448,377.791 291,384.5C 289.786,386.049 288.286,387.215 286.5,388C 271.946,393.555 256.946,397.389 241.5,399.5C 236.699,398.866 234.865,396.2 236,391.5C 236.5,389.667 237.667,388.5 239.5,388C 254.04,385.701 268.04,381.868 281.5,376.5 Z"/></g>
<g><path style="opacity:1" fill="#373737" d="M 149.5,378.5 C 157.864,380.34 166.198,382.507 174.5,385C 182.135,386.552 189.802,387.885 197.5,389C 201.977,391.686 202.644,395.186 199.5,399.5C 194.193,400.344 188.86,400.177 183.5,399C 172.096,396.316 160.763,393.316 149.5,390C 145.555,386.169 145.555,382.336 149.5,378.5 Z"/></g>
</svg>